<mxfile host="app.diagrams.net" modified="2024-02-11T18:51:13.316Z" agent="Mozilla/5.0 (Windows NT 10.0; Win64; x64; rv:122.0) Gecko/20100101 Firefox/122.0" etag="NKiQBiUuRqj4CBNueSrY" version="23.1.2" type="github">
  <diagram name="Seite-1" id="2IHl9K_gWM1_8JdZb7JM">
    <mxGraphModel dx="1434" dy="718" grid="1" gridSize="10" guides="1" tooltips="1" connect="1" arrows="1" fold="1" page="1" pageScale="1" pageWidth="1169" pageHeight="827" math="0" shadow="0">
      <root>
        <mxCell id="0" />
        <mxCell id="1" parent="0" />
      </root>
    </mxGraphModel>
  </diagram>
</mxfile>
